<mxfile host="drawio-plugin" agent="5.0 (Macintosh; Intel Mac OS X 10_15_7) AppleWebKit/537.36 (KHTML, like Gecko) Chrome/104.0.5112.102 Safari/537.36" modified="2025-03-06T12:59:09.494Z" version="20.5.3" etag="M7-5FCYfUdcFBJa6ROxU" type="embed"><diagram name="Page-1" id="XszQtXac1Nzd62cgtpj4"><mxGraphModel dx="3143" dy="1436" grid="1" gridSize="10" guides="1" tooltips="1" connect="1" arrows="1" fold="1" page="1" pageScale="1" pageWidth="827" pageHeight="1169" math="0" shadow="0"><root><mxCell id="0"/><mxCell id="1" parent="0"/><mxCell id="Kd0y6adihXL77d8S-p3G-1" style="edgeStyle=orthogonalEdgeStyle;rounded=0;orthogonalLoop=1;jettySize=auto;html=1;entryX=0;entryY=0.5;entryDx=0;entryDy=0;" parent="1" source="Kd0y6adihXL77d8S-p3G-2" target="Kd0y6adihXL77d8S-p3G-7" edge="1"><mxGeometry relative="1" as="geometry"/></mxCell><mxCell id="Kd0y6adihXL77d8S-p3G-2" value="Agent Data Model" style="whiteSpace=wrap;html=1;aspect=fixed;fontStyle=1" parent="1" vertex="1"><mxGeometry x="-1620" y="-330" width="60" height="60" as="geometry"/></mxCell><mxCell id="Kd0y6adihXL77d8S-p3G-3" style="edgeStyle=orthogonalEdgeStyle;rounded=0;orthogonalLoop=1;jettySize=auto;html=1;entryX=0;entryY=0.5;entryDx=0;entryDy=0;" parent="1" target="Kd0y6adihXL77d8S-p3G-5" edge="1"><mxGeometry relative="1" as="geometry"><mxPoint x="-1840" y="-300" as="sourcePoint"/></mxGeometry></mxCell><mxCell id="Kd0y6adihXL77d8S-p3G-4" style="edgeStyle=orthogonalEdgeStyle;rounded=0;orthogonalLoop=1;jettySize=auto;html=1;entryX=0;entryY=0.5;entryDx=0;entryDy=0;" parent="1" source="Kd0y6adihXL77d8S-p3G-5" target="Kd0y6adihXL77d8S-p3G-2" edge="1"><mxGeometry relative="1" as="geometry"/></mxCell><mxCell id="Kd0y6adihXL77d8S-p3G-5" value="Build agent data model" style="shape=process;whiteSpace=wrap;html=1;backgroundOutline=1;fontStyle=1;fillColor=#ffe6cc;strokeColor=#d79b00;" parent="1" vertex="1"><mxGeometry x="-1800" y="-330" width="140" height="60" as="geometry"/></mxCell><mxCell id="Kd0y6adihXL77d8S-p3G-6" value="Source Code" style="sketch=0;outlineConnect=0;fontColor=#232F3E;gradientColor=none;fillColor=#232F3D;strokeColor=none;dashed=0;verticalLabelPosition=bottom;verticalAlign=top;align=center;html=1;fontSize=12;fontStyle=0;aspect=fixed;pointerEvents=1;shape=mxgraph.aws4.folder;" parent="1" vertex="1"><mxGeometry x="-1897.03" y="-315.5" width="34.06" height="31" as="geometry"/></mxCell><mxCell id="Kd0y6adihXL77d8S-p3G-7" value="Append custom extension" style="shape=process;whiteSpace=wrap;html=1;backgroundOutline=1;fontStyle=1;fillColor=#ffe6cc;strokeColor=#d79b00;" parent="1" vertex="1"><mxGeometry x="-1510" y="-330" width="140" height="60" as="geometry"/></mxCell><mxCell id="Kd0y6adihXL77d8S-p3G-8" value="" style="edgeStyle=orthogonalEdgeStyle;rounded=0;orthogonalLoop=1;jettySize=auto;html=1;entryX=0;entryY=0.5;entryDx=0;entryDy=0;" parent="1" source="Kd0y6adihXL77d8S-p3G-7" target="Kd0y6adihXL77d8S-p3G-9" edge="1"><mxGeometry relative="1" as="geometry"><mxPoint x="-1410" y="-300" as="sourcePoint"/><mxPoint x="-1180" y="-300" as="targetPoint"/></mxGeometry></mxCell><mxCell id="Kd0y6adihXL77d8S-p3G-9" value="Agent Data Model" style="whiteSpace=wrap;html=1;aspect=fixed;fontStyle=1" parent="1" vertex="1"><mxGeometry x="-1330" y="-330" width="60" height="60" as="geometry"/></mxCell><mxCell id="Kd0y6adihXL77d8S-p3G-10" value="Custom Extension" style="shape=process;whiteSpace=wrap;html=1;backgroundOutline=1;" parent="1" vertex="1"><mxGeometry x="-1305" y="-275" width="80" height="30" as="geometry"/></mxCell></root></mxGraphModel></diagram></mxfile>